# xmcd
#
# Track frame offsets:
#	150
#	18985
#	42922
#	91070
#	113287
#	141597
#
# Disc length: 2143 seconds
#
# Revision: 4
# Processed by: cddbd v1.5.2PL0 Copyright (c) Steve Scherf et al.
# Submitted via: EZCDAudioConverter 9.0.5.1
#
DISCID=41085d06
DTITLE=DJ JORGE MALUCO - DJ JORGE MALUCO APRESENTA DJ CRAZY VOL.02 - 1995 [CD 
DTITLE=MS 024) MAIA FUNK RECORDS
DYEAR=1995
DGENRE=FUNK
TTITLE0=MC MARCINHO - QUERO VOCÊ (BY GILMAR SINISTRO)
TTITLE1=MC CLEBINHO and MC MORENO - RAP DO PARAIBA (BY GILMAR SINISTRO)
TTITLE2=DJ JORGE MALUCO - MONTAGEM - DO SAMUEL II (BY GILMAR SINISTRO)
TTITLE3=MC MARCINHO and MC CACAU - PRIMEIRO VOCÊ  ME DISSE (BY GILMAR SINISTRO)
TTITLE4=MC LALI and MC LELÉ - QUEM SABE SOU EU (BOASSÚ, MORRO DO ESTADO) (BY GIL
TTITLE4=MAR SINISTRO)
TTITLE5=DJ JORGE MALUCO - MONTAGEM - RESSUSCITA SÃO GONÇALO (BY GILMAR SINISTR
TTITLE5=O)
EXTD=
EXTT0=
EXTT1=
EXTT2=
EXTT3=
EXTT4=
EXTT5=
PLAYORDER=
